<svg xmlns="http://www.w3.org/2000/svg" viewBox="0 0 100 100" preserveAspectRatio="xMidYMid" width="200" height="200" style="shape-rendering: auto; display: block; background: transparent;" xmlns:xlink="http://www.w3.org/1999/xlink"><g><g transform="rotate(0 50 50)">
  <rect fill="#fe718d" height="12" width="6" ry="5.64" rx="3" y="24" x="47">
    <animate repeatCount="indefinite" begin="-0.462962962962963s" dur="0.5050505050505051s" keyTimes="0;1" values="1;0" attributeName="opacity"></animate>
  </rect>
</g><g transform="rotate(30 50 50)">
  <rect fill="#fe718d" height="12" width="6" ry="5.64" rx="3" y="24" x="47">
    <animate repeatCount="indefinite" begin="-0.4208754208754209s" dur="0.5050505050505051s" keyTimes="0;1" values="1;0" attributeName="opacity"></animate>
  </rect>
</g><g transform="rotate(60 50 50)">
  <rect fill="#fe718d" height="12" width="6" ry="5.64" rx="3" y="24" x="47">
    <animate repeatCount="indefinite" begin="-0.37878787878787884s" dur="0.5050505050505051s" keyTimes="0;1" values="1;0" attributeName="opacity"></animate>
  </rect>
</g><g transform="rotate(90 50 50)">
  <rect fill="#fe718d" height="12" width="6" ry="5.64" rx="3" y="24" x="47">
    <animate repeatCount="indefinite" begin="-0.3367003367003367s" dur="0.5050505050505051s" keyTimes="0;1" values="1;0" attributeName="opacity"></animate>
  </rect>
</g><g transform="rotate(120 50 50)">
  <rect fill="#fe718d" height="12" width="6" ry="5.64" rx="3" y="24" x="47">
    <animate repeatCount="indefinite" begin="-0.29461279461279466s" dur="0.5050505050505051s" keyTimes="0;1" values="1;0" attributeName="opacity"></animate>
  </rect>
</g><g transform="rotate(150 50 50)">
  <rect fill="#fe718d" height="12" width="6" ry="5.64" rx="3" y="24" x="47">
    <animate repeatCount="indefinite" begin="-0.25252525252525254s" dur="0.5050505050505051s" keyTimes="0;1" values="1;0" attributeName="opacity"></animate>
  </rect>
</g><g transform="rotate(180 50 50)">
  <rect fill="#fe718d" height="12" width="6" ry="5.64" rx="3" y="24" x="47">
    <animate repeatCount="indefinite" begin="-0.21043771043771045s" dur="0.5050505050505051s" keyTimes="0;1" values="1;0" attributeName="opacity"></animate>
  </rect>
</g><g transform="rotate(210 50 50)">
  <rect fill="#fe718d" height="12" width="6" ry="5.64" rx="3" y="24" x="47">
    <animate repeatCount="indefinite" begin="-0.16835016835016836s" dur="0.5050505050505051s" keyTimes="0;1" values="1;0" attributeName="opacity"></animate>
  </rect>
</g><g transform="rotate(240 50 50)">
  <rect fill="#fe718d" height="12" width="6" ry="5.64" rx="3" y="24" x="47">
    <animate repeatCount="indefinite" begin="-0.12626262626262627s" dur="0.5050505050505051s" keyTimes="0;1" values="1;0" attributeName="opacity"></animate>
  </rect>
</g><g transform="rotate(270 50 50)">
  <rect fill="#fe718d" height="12" width="6" ry="5.64" rx="3" y="24" x="47">
    <animate repeatCount="indefinite" begin="-0.08417508417508418s" dur="0.5050505050505051s" keyTimes="0;1" values="1;0" attributeName="opacity"></animate>
  </rect>
</g><g transform="rotate(300 50 50)">
  <rect fill="#fe718d" height="12" width="6" ry="5.64" rx="3" y="24" x="47">
    <animate repeatCount="indefinite" begin="-0.04208754208754209s" dur="0.5050505050505051s" keyTimes="0;1" values="1;0" attributeName="opacity"></animate>
  </rect>
</g><g transform="rotate(330 50 50)">
  <rect fill="#fe718d" height="12" width="6" ry="5.64" rx="3" y="24" x="47">
    <animate repeatCount="indefinite" begin="0s" dur="0.5050505050505051s" keyTimes="0;1" values="1;0" attributeName="opacity"></animate>
  </rect>
</g><g></g></g><!-- [ldio] generated by https://loading.io --></svg>